<?xml version="1.0" encoding="UTF-8"?>
<svg xmlns="http://www.w3.org/2000/svg" xmlns:xlink="http://www.w3.org/1999/xlink" width="450pt" height="429pt" viewBox="0 0 450 429" version="1.1">
<g id="surface1">
<path style="fill:none;stroke-width:1.25;stroke-linecap:butt;stroke-linejoin:miter;stroke:rgb(14.99939%,28.999329%,50%);stroke-opacity:0.7;stroke-miterlimit:3.25;" d="M 327.785156 203.449219 L 162.707031 323.386719 "/>
<path style="fill:none;stroke-width:1.25;stroke-linecap:butt;stroke-linejoin:miter;stroke:rgb(14.99939%,28.999329%,50%);stroke-opacity:0.7;stroke-miterlimit:3.25;" d="M 327.023438 201.105469 L 122.976563 201.105469 "/>
<path style="fill:none;stroke-width:1.25;stroke-linecap:butt;stroke-linejoin:miter;stroke:rgb(14.99939%,28.999329%,50%);stroke-opacity:0.7;stroke-miterlimit:3.25;" d="M 334.796875 199.875 L 433.226563 167.894531 "/>
<path style="fill:none;stroke-width:1.25;stroke-linecap:butt;stroke-linejoin:miter;stroke:rgb(14.99939%,28.999329%,50%);stroke-opacity:0.7;stroke-miterlimit:3.25;" d="M 287.292969 323.386719 L 122.214844 203.449219 "/>
<path style="fill:none;stroke-width:1.25;stroke-linecap:butt;stroke-linejoin:miter;stroke:rgb(14.99939%,28.999329%,50%);stroke-opacity:0.7;stroke-miterlimit:3.25;" d="M 289.285156 321.9375 L 226.230469 127.875 "/>
<path style="fill:none;stroke-width:1.25;stroke-linecap:butt;stroke-linejoin:miter;stroke:rgb(14.99939%,28.999329%,50%);stroke-opacity:0.7;stroke-miterlimit:3.25;" d="M 292.859375 328.949219 L 353.691406 412.679688 "/>
<path style="fill:none;stroke-width:1.25;stroke-linecap:butt;stroke-linejoin:miter;stroke:rgb(14.99939%,28.999329%,50%);stroke-opacity:0.7;stroke-miterlimit:3.25;" d="M 160.714844 321.9375 L 223.769531 127.875 "/>
<path style="fill:none;stroke-width:1.25;stroke-linecap:butt;stroke-linejoin:miter;stroke:rgb(14.99939%,28.999329%,50%);stroke-opacity:0.7;stroke-miterlimit:3.25;" d="M 157.140625 328.949219 L 96.308594 412.679688 "/>
<path style="fill:none;stroke-width:1.25;stroke-linecap:butt;stroke-linejoin:miter;stroke:rgb(14.99939%,28.999329%,50%);stroke-opacity:0.7;stroke-miterlimit:3.25;" d="M 115.203125 199.875 L 16.773438 167.894531 "/>
<path style="fill:none;stroke-width:1.25;stroke-linecap:butt;stroke-linejoin:miter;stroke:rgb(14.99939%,28.999329%,50%);stroke-opacity:0.7;stroke-miterlimit:3.25;" d="M 225 120.101563 L 225 16.609375 "/>
<path style="fill:none;stroke-width:1.25;stroke-linecap:butt;stroke-linejoin:miter;stroke:rgb(14.99939%,28.999329%,50%);stroke-opacity:0.7;stroke-miterlimit:3.25;" d="M 435.785156 170.453125 L 357.265625 412.113281 "/>
<path style="fill:none;stroke-width:1.25;stroke-linecap:butt;stroke-linejoin:miter;stroke:rgb(14.99939%,28.999329%,50%);stroke-opacity:0.7;stroke-miterlimit:3.25;" d="M 433.792969 164.320313 L 228.222656 14.964844 "/>
<path style="fill:none;stroke-width:1.25;stroke-linecap:butt;stroke-linejoin:miter;stroke:rgb(14.99939%,28.999329%,50%);stroke-opacity:0.7;stroke-miterlimit:3.25;" d="M 352.050781 415.902344 L 97.949219 415.902344 "/>
<path style="fill:none;stroke-width:1.25;stroke-linecap:butt;stroke-linejoin:miter;stroke:rgb(14.99939%,28.999329%,50%);stroke-opacity:0.7;stroke-miterlimit:3.25;" d="M 92.734375 412.113281 L 14.214844 170.453125 "/>
<path style="fill:none;stroke-width:1.25;stroke-linecap:butt;stroke-linejoin:miter;stroke:rgb(14.99939%,28.999329%,50%);stroke-opacity:0.7;stroke-miterlimit:3.25;" d="M 16.207031 164.320313 L 221.777344 14.964844 "/>
<path style="fill:none;stroke-width:1.25;stroke-linecap:square;stroke-linejoin:miter;stroke:rgb(14.99939%,28.999329%,50%);stroke-opacity:0.7;stroke-miterlimit:3.25;" d="M 162.707031 323.386719 Z M 162.707031 323.386719 "/>
<path style="fill:none;stroke-width:1.25;stroke-linecap:square;stroke-linejoin:miter;stroke:rgb(14.99939%,28.999329%,50%);stroke-opacity:0.7;stroke-miterlimit:3.25;" d="M 122.976563 201.105469 Z M 122.976563 201.105469 "/>
<path style="fill:none;stroke-width:1.25;stroke-linecap:square;stroke-linejoin:miter;stroke:rgb(14.99939%,28.999329%,50%);stroke-opacity:0.7;stroke-miterlimit:3.25;" d="M 433.226563 167.894531 Z M 433.226563 167.894531 "/>
<path style="fill:none;stroke-width:1.25;stroke-linecap:square;stroke-linejoin:miter;stroke:rgb(14.99939%,28.999329%,50%);stroke-opacity:0.7;stroke-miterlimit:3.25;" d="M 122.214844 203.449219 Z M 122.214844 203.449219 "/>
<path style="fill:none;stroke-width:1.25;stroke-linecap:square;stroke-linejoin:miter;stroke:rgb(14.99939%,28.999329%,50%);stroke-opacity:0.7;stroke-miterlimit:3.25;" d="M 226.230469 127.875 Z M 226.230469 127.875 "/>
<path style="fill:none;stroke-width:1.25;stroke-linecap:square;stroke-linejoin:miter;stroke:rgb(14.99939%,28.999329%,50%);stroke-opacity:0.7;stroke-miterlimit:3.25;" d="M 353.691406 412.679688 Z M 353.691406 412.679688 "/>
<path style="fill:none;stroke-width:1.25;stroke-linecap:square;stroke-linejoin:miter;stroke:rgb(14.99939%,28.999329%,50%);stroke-opacity:0.7;stroke-miterlimit:3.25;" d="M 223.769531 127.875 Z M 223.769531 127.875 "/>
<path style="fill:none;stroke-width:1.25;stroke-linecap:square;stroke-linejoin:miter;stroke:rgb(14.99939%,28.999329%,50%);stroke-opacity:0.7;stroke-miterlimit:3.25;" d="M 96.308594 412.679688 Z M 96.308594 412.679688 "/>
<path style="fill:none;stroke-width:1.25;stroke-linecap:square;stroke-linejoin:miter;stroke:rgb(14.99939%,28.999329%,50%);stroke-opacity:0.7;stroke-miterlimit:3.25;" d="M 16.773438 167.894531 Z M 16.773438 167.894531 "/>
<path style="fill:none;stroke-width:1.25;stroke-linecap:square;stroke-linejoin:miter;stroke:rgb(14.99939%,28.999329%,50%);stroke-opacity:0.7;stroke-miterlimit:3.25;" d="M 225 16.609375 Z M 225 16.609375 "/>
<path style="fill:none;stroke-width:1.25;stroke-linecap:square;stroke-linejoin:miter;stroke:rgb(14.99939%,28.999329%,50%);stroke-opacity:0.7;stroke-miterlimit:3.25;" d="M 357.265625 412.113281 Z M 357.265625 412.113281 "/>
<path style="fill:none;stroke-width:1.25;stroke-linecap:square;stroke-linejoin:miter;stroke:rgb(14.99939%,28.999329%,50%);stroke-opacity:0.7;stroke-miterlimit:3.25;" d="M 228.222656 14.964844 Z M 228.222656 14.964844 "/>
<path style="fill:none;stroke-width:1.25;stroke-linecap:square;stroke-linejoin:miter;stroke:rgb(14.99939%,28.999329%,50%);stroke-opacity:0.7;stroke-miterlimit:3.25;" d="M 97.949219 415.902344 Z M 97.949219 415.902344 "/>
<path style="fill:none;stroke-width:1.25;stroke-linecap:square;stroke-linejoin:miter;stroke:rgb(14.99939%,28.999329%,50%);stroke-opacity:0.7;stroke-miterlimit:3.25;" d="M 14.214844 170.453125 Z M 14.214844 170.453125 "/>
<path style="fill:none;stroke-width:1.25;stroke-linecap:square;stroke-linejoin:miter;stroke:rgb(14.99939%,28.999329%,50%);stroke-opacity:0.7;stroke-miterlimit:3.25;" d="M 221.777344 14.964844 Z M 221.777344 14.964844 "/>
<path style="fill-rule:evenodd;fill:rgb(63.998413%,70.399475%,79.998779%);fill-opacity:1;stroke-width:1.25;stroke-linecap:square;stroke-linejoin:miter;stroke:rgb(0%,0%,0%);stroke-opacity:0.7;stroke-miterlimit:3.25;" d="M 334.992188 201.105469 C 334.992188 200.050781 334.570313 199.035156 333.824219 198.289063 C 333.078125 197.542969 332.066406 197.121094 331.007813 197.121094 C 329.953125 197.121094 328.9375 197.542969 328.191406 198.289063 C 327.445313 199.035156 327.023438 200.050781 327.023438 201.105469 C 327.023438 202.164063 327.445313 203.175781 328.191406 203.921875 C 328.9375 204.671875 329.953125 205.089844 331.007813 205.089844 C 332.066406 205.089844 333.078125 204.671875 333.824219 203.921875 C 334.570313 203.175781 334.992188 202.164063 334.992188 201.105469 Z M 334.992188 201.105469 "/>
<path style="fill-rule:evenodd;fill:rgb(63.998413%,70.399475%,79.998779%);fill-opacity:1;stroke-width:1.25;stroke-linecap:square;stroke-linejoin:miter;stroke:rgb(0%,0%,0%);stroke-opacity:0.7;stroke-miterlimit:3.25;" d="M 294.5 325.726563 C 294.5 324.671875 294.082031 323.65625 293.332031 322.910156 C 292.585938 322.164063 291.574219 321.742188 290.515625 321.742188 C 289.460938 321.742188 288.445313 322.164063 287.699219 322.910156 C 286.953125 323.65625 286.53125 324.671875 286.53125 325.726563 C 286.53125 326.785156 286.953125 327.796875 287.699219 328.542969 C 288.445313 329.289063 289.460938 329.710938 290.515625 329.710938 C 291.574219 329.710938 292.585938 329.289063 293.332031 328.542969 C 294.082031 327.796875 294.5 326.785156 294.5 325.726563 Z M 294.5 325.726563 "/>
<path style="fill-rule:evenodd;fill:rgb(63.998413%,70.399475%,79.998779%);fill-opacity:1;stroke-width:1.25;stroke-linecap:square;stroke-linejoin:miter;stroke:rgb(0%,0%,0%);stroke-opacity:0.7;stroke-miterlimit:3.25;" d="M 163.46875 325.726563 C 163.46875 324.671875 163.046875 323.65625 162.300781 322.910156 C 161.554688 322.164063 160.539063 321.742188 159.484375 321.742188 C 158.425781 321.742188 157.414063 322.164063 156.667969 322.910156 C 155.917969 323.65625 155.5 324.671875 155.5 325.726563 C 155.5 326.785156 155.917969 327.796875 156.667969 328.542969 C 157.414063 329.289063 158.425781 329.710938 159.484375 329.710938 C 160.539063 329.710938 161.554688 329.289063 162.300781 328.542969 C 163.046875 327.796875 163.46875 326.785156 163.46875 325.726563 Z M 163.46875 325.726563 "/>
<path style="fill-rule:evenodd;fill:rgb(63.998413%,70.399475%,79.998779%);fill-opacity:1;stroke-width:1.25;stroke-linecap:square;stroke-linejoin:miter;stroke:rgb(0%,0%,0%);stroke-opacity:0.7;stroke-miterlimit:3.25;" d="M 122.976563 201.105469 C 122.976563 200.050781 122.554688 199.035156 121.808594 198.289063 C 121.0625 197.542969 120.046875 197.121094 118.992188 197.121094 C 117.933594 197.121094 116.921875 197.542969 116.175781 198.289063 C 115.429688 199.035156 115.007813 200.050781 115.007813 201.105469 C 115.007813 202.164063 115.429688 203.175781 116.175781 203.921875 C 116.921875 204.671875 117.933594 205.089844 118.992188 205.089844 C 120.046875 205.089844 121.0625 204.671875 121.808594 203.921875 C 122.554688 203.175781 122.976563 202.164063 122.976563 201.105469 Z M 122.976563 201.105469 "/>
<path style="fill-rule:evenodd;fill:rgb(63.998413%,70.399475%,79.998779%);fill-opacity:1;stroke-width:1.25;stroke-linecap:square;stroke-linejoin:miter;stroke:rgb(0%,0%,0%);stroke-opacity:0.7;stroke-miterlimit:3.25;" d="M 228.984375 124.085938 C 228.984375 123.03125 228.5625 122.015625 227.816406 121.269531 C 227.070313 120.523438 226.054688 120.101563 225 120.101563 C 223.945313 120.101563 222.929688 120.523438 222.183594 121.269531 C 221.4375 122.015625 221.015625 123.03125 221.015625 124.085938 C 221.015625 125.144531 221.4375 126.15625 222.183594 126.90625 C 222.929688 127.652344 223.945313 128.070313 225 128.070313 C 226.054688 128.070313 227.070313 127.652344 227.816406 126.90625 C 228.5625 126.15625 228.984375 125.144531 228.984375 124.085938 Z M 228.984375 124.085938 "/>
<path style="fill-rule:evenodd;fill:rgb(63.998413%,70.399475%,79.998779%);fill-opacity:1;stroke-width:1.25;stroke-linecap:square;stroke-linejoin:miter;stroke:rgb(0%,0%,0%);stroke-opacity:0.7;stroke-miterlimit:3.25;" d="M 441 166.664063 C 441 165.605469 440.582031 164.59375 439.832031 163.84375 C 439.085938 163.097656 438.074219 162.679688 437.015625 162.679688 C 435.960938 162.679688 434.945313 163.097656 434.199219 163.84375 C 433.453125 164.59375 433.03125 165.605469 433.03125 166.664063 C 433.03125 167.71875 433.453125 168.734375 434.199219 169.480469 C 434.945313 170.226563 435.960938 170.648438 437.015625 170.648438 C 438.074219 170.648438 439.085938 170.226563 439.832031 169.480469 C 440.582031 168.734375 441 167.71875 441 166.664063 Z M 441 166.664063 "/>
<path style="fill-rule:evenodd;fill:rgb(63.998413%,70.399475%,79.998779%);fill-opacity:1;stroke-width:1.25;stroke-linecap:square;stroke-linejoin:miter;stroke:rgb(0%,0%,0%);stroke-opacity:0.7;stroke-miterlimit:3.25;" d="M 360.015625 415.902344 C 360.015625 414.847656 359.597656 413.832031 358.851563 413.085938 C 358.101563 412.339844 357.089844 411.917969 356.03125 411.917969 C 354.976563 411.917969 353.964844 412.339844 353.214844 413.085938 C 352.46875 413.832031 352.050781 414.847656 352.050781 415.902344 C 352.050781 416.960938 352.46875 417.972656 353.214844 418.71875 C 353.964844 419.464844 354.976563 419.886719 356.03125 419.886719 C 357.089844 419.886719 358.101563 419.464844 358.851563 418.71875 C 359.597656 417.972656 360.015625 416.960938 360.015625 415.902344 Z M 360.015625 415.902344 "/>
<path style="fill-rule:evenodd;fill:rgb(63.998413%,70.399475%,79.998779%);fill-opacity:1;stroke-width:1.25;stroke-linecap:square;stroke-linejoin:miter;stroke:rgb(0%,0%,0%);stroke-opacity:0.7;stroke-miterlimit:3.25;" d="M 97.949219 415.902344 C 97.949219 414.847656 97.53125 413.832031 96.785156 413.085938 C 96.035156 412.339844 95.023438 411.917969 93.96875 411.917969 C 92.910156 411.917969 91.898438 412.339844 91.148438 413.085938 C 90.402344 413.832031 89.984375 414.847656 89.984375 415.902344 C 89.984375 416.960938 90.402344 417.972656 91.148438 418.71875 C 91.898438 419.464844 92.910156 419.886719 93.96875 419.886719 C 95.023438 419.886719 96.035156 419.464844 96.785156 418.71875 C 97.53125 417.972656 97.949219 416.960938 97.949219 415.902344 Z M 97.949219 415.902344 "/>
<path style="fill-rule:evenodd;fill:rgb(63.998413%,70.399475%,79.998779%);fill-opacity:1;stroke-width:1.25;stroke-linecap:square;stroke-linejoin:miter;stroke:rgb(0%,0%,0%);stroke-opacity:0.7;stroke-miterlimit:3.25;" d="M 16.96875 166.664063 C 16.96875 165.605469 16.546875 164.59375 15.800781 163.84375 C 15.054688 163.097656 14.039063 162.679688 12.984375 162.679688 C 11.925781 162.679688 10.914063 163.097656 10.167969 163.84375 C 9.417969 164.59375 9 165.605469 9 166.664063 C 9 167.71875 9.417969 168.734375 10.167969 169.480469 C 10.914063 170.226563 11.925781 170.648438 12.984375 170.648438 C 14.039063 170.648438 15.054688 170.226563 15.800781 169.480469 C 16.546875 168.734375 16.96875 167.71875 16.96875 166.664063 Z M 16.96875 166.664063 "/>
<path style="fill-rule:evenodd;fill:rgb(63.998413%,70.399475%,79.998779%);fill-opacity:1;stroke-width:1.25;stroke-linecap:square;stroke-linejoin:miter;stroke:rgb(0%,0%,0%);stroke-opacity:0.7;stroke-miterlimit:3.25;" d="M 228.984375 12.625 C 228.984375 11.566406 228.5625 10.554688 227.816406 9.808594 C 227.070313 9.058594 226.054688 8.640625 225 8.640625 C 223.945313 8.640625 222.929688 9.058594 222.183594 9.808594 C 221.4375 10.554688 221.015625 11.566406 221.015625 12.625 C 221.015625 13.679688 221.4375 14.695313 222.183594 15.441406 C 222.929688 16.1875 223.945313 16.609375 225 16.609375 C 226.054688 16.609375 227.070313 16.1875 227.816406 15.441406 C 228.5625 14.695313 228.984375 13.679688 228.984375 12.625 Z M 228.984375 12.625 "/>
</g>
</svg>
